<svg width="1366" height="858" viewBox="0 0 1366 858" fill="none" xmlns="http://www.w3.org/2000/svg">
<rect y="90" width="1366" height="768" fill="#33FFF3"/>
<path d="M111.104 531L82.048 441.4H108.16L132.608 518.968H119.424L145.152 441.4H168.448L192.768 518.968H180.096L205.312 441.4H229.504L200.448 531H173.312L152.576 465.08H159.872L138.24 531H111.104ZM268.66 532.152C260.468 532.152 253.3 530.616 247.156 527.544C241.097 524.387 236.361 520.12 232.948 514.744C229.62 509.283 227.956 503.096 227.956 496.184C227.956 489.272 229.577 483.128 232.82 477.752C236.148 472.291 240.713 468.067 246.516 465.08C252.319 462.008 258.847 460.472 266.1 460.472C272.927 460.472 279.156 461.88 284.788 464.696C290.42 467.427 294.9 471.48 298.228 476.856C301.556 482.232 303.22 488.76 303.22 496.44C303.22 497.293 303.177 498.275 303.092 499.384C303.007 500.493 302.921 501.517 302.836 502.456H247.924V489.656H289.908L280.692 493.24C280.777 490.083 280.18 487.352 278.9 485.048C277.705 482.744 275.999 480.952 273.78 479.672C271.647 478.392 269.129 477.752 266.228 477.752C263.327 477.752 260.767 478.392 258.548 479.672C256.415 480.952 254.751 482.787 253.556 485.176C252.361 487.48 251.764 490.211 251.764 493.368V497.08C251.764 500.493 252.447 503.437 253.812 505.912C255.263 508.387 257.311 510.307 259.956 511.672C262.601 512.952 265.759 513.592 269.428 513.592C272.841 513.592 275.743 513.123 278.132 512.184C280.607 511.16 283.039 509.624 285.428 507.576L298.228 520.888C294.9 524.557 290.804 527.373 285.94 529.336C281.076 531.213 275.316 532.152 268.66 532.152ZM312.12 482.616L321.72 449.336L325.176 463.16C320.909 463.16 317.411 461.923 314.68 459.448C311.949 456.888 310.584 453.475 310.584 449.208C310.584 444.856 311.949 441.4 314.68 438.84C317.496 436.195 320.995 434.872 325.176 434.872C329.357 434.872 332.813 436.195 335.544 438.84C338.275 441.4 339.64 444.856 339.64 449.208C339.64 450.403 339.555 451.64 339.384 452.92C339.213 454.115 338.829 455.565 338.232 457.272C337.72 458.893 336.824 461.112 335.544 463.928L327.352 482.616H312.12ZM351.058 531V461.624H374.226V481.848L370.77 476.088C372.818 470.883 376.146 467 380.754 464.44C385.362 461.795 390.951 460.472 397.522 460.472V482.36C396.413 482.189 395.431 482.104 394.578 482.104C393.81 482.019 392.957 481.976 392.018 481.976C387.069 481.976 383.058 483.341 379.986 486.072C376.914 488.717 375.378 493.069 375.378 499.128V531H351.058ZM443.285 532.152C435.093 532.152 427.925 530.616 421.781 527.544C415.722 524.387 410.986 520.12 407.573 514.744C404.245 509.283 402.581 503.096 402.581 496.184C402.581 489.272 404.202 483.128 407.445 477.752C410.773 472.291 415.338 468.067 421.141 465.08C426.944 462.008 433.472 460.472 440.725 460.472C447.552 460.472 453.781 461.88 459.413 464.696C465.045 467.427 469.525 471.48 472.853 476.856C476.181 482.232 477.845 488.76 477.845 496.44C477.845 497.293 477.802 498.275 477.717 499.384C477.632 500.493 477.546 501.517 477.461 502.456H422.549V489.656H464.533L455.317 493.24C455.402 490.083 454.805 487.352 453.525 485.048C452.33 482.744 450.624 480.952 448.405 479.672C446.272 478.392 443.754 477.752 440.853 477.752C437.952 477.752 435.392 478.392 433.173 479.672C431.04 480.952 429.376 482.787 428.181 485.176C426.986 487.48 426.389 490.211 426.389 493.368V497.08C426.389 500.493 427.072 503.437 428.437 505.912C429.888 508.387 431.936 510.307 434.581 511.672C437.226 512.952 440.384 513.592 444.053 513.592C447.466 513.592 450.368 513.123 452.757 512.184C455.232 511.16 457.664 509.624 460.053 507.576L472.853 520.888C469.525 524.557 465.429 527.373 460.565 529.336C455.701 531.213 449.941 532.152 443.285 532.152ZM133.76 648.792C126.677 648.792 120.107 647.683 114.048 645.464C107.989 643.16 102.741 639.917 98.304 635.736C93.952 631.555 90.5387 626.648 88.064 621.016C85.5893 615.299 84.352 609.027 84.352 602.2C84.352 595.373 85.5893 589.144 88.064 583.512C90.5387 577.795 93.9947 572.845 98.432 568.664C102.869 564.483 108.117 561.283 114.176 559.064C120.32 556.76 127.019 555.608 134.272 555.608C142.72 555.608 150.272 557.016 156.928 559.832C163.584 562.648 169.088 566.701 173.44 571.992L157.312 586.584C154.24 583.256 150.912 580.781 147.328 579.16C143.829 577.453 139.904 576.6 135.552 576.6C131.712 576.6 128.213 577.197 125.056 578.392C121.899 579.587 119.211 581.336 116.992 583.64C114.773 585.859 113.024 588.547 111.744 591.704C110.549 594.776 109.952 598.275 109.952 602.2C109.952 605.955 110.549 609.411 111.744 612.568C113.024 615.725 114.773 618.456 116.992 620.76C119.211 622.979 121.856 624.728 124.928 626.008C128.085 627.203 131.541 627.8 135.296 627.8C139.051 627.8 142.72 627.203 146.304 626.008C149.888 624.728 153.515 622.595 157.184 619.608L171.392 637.4C166.272 641.069 160.341 643.885 153.6 645.848C146.859 647.811 140.245 648.792 133.76 648.792ZM148.992 634.072V600.28H171.392V637.4L148.992 634.072ZM186.308 647V577.624H209.476V597.848L206.02 592.088C208.068 586.883 211.396 583 216.004 580.44C220.612 577.795 226.201 576.472 232.772 576.472V598.36C231.663 598.189 230.681 598.104 229.828 598.104C229.06 598.019 228.207 597.976 227.268 597.976C222.319 597.976 218.308 599.341 215.236 602.072C212.164 604.717 210.628 609.069 210.628 615.128V647H186.308ZM276.999 648.152C269.404 648.152 262.663 646.616 256.775 643.544C250.887 640.472 246.236 636.248 242.823 630.872C239.495 625.411 237.831 619.181 237.831 612.184C237.831 605.187 239.495 599 242.823 593.624C246.236 588.248 250.887 584.067 256.775 581.08C262.663 578.008 269.404 576.472 276.999 576.472C284.594 576.472 291.335 578.008 297.223 581.08C303.196 584.067 307.847 588.248 311.175 593.624C314.503 599 316.167 605.187 316.167 612.184C316.167 619.181 314.503 625.411 311.175 630.872C307.847 636.248 303.196 640.472 297.223 643.544C291.335 646.616 284.594 648.152 276.999 648.152ZM276.999 628.824C279.815 628.824 282.29 628.184 284.423 626.904C286.642 625.624 288.391 623.747 289.671 621.272C290.951 618.712 291.591 615.683 291.591 612.184C291.591 608.685 290.951 605.741 289.671 603.352C288.391 600.877 286.642 599 284.423 597.72C282.29 596.44 279.815 595.8 276.999 595.8C274.268 595.8 271.794 596.44 269.575 597.72C267.442 599 265.692 600.877 264.327 603.352C263.047 605.741 262.407 608.685 262.407 612.184C262.407 615.683 263.047 618.712 264.327 621.272C265.692 623.747 267.442 625.624 269.575 626.904C271.794 628.184 274.268 628.824 276.999 628.824ZM342.07 647L317.366 577.624H340.406L359.99 635.608H348.982L369.334 577.624H390.07L409.654 635.608H398.902L419.126 577.624H440.502L415.798 647H392.246L375.606 599H382.774L365.622 647H342.07ZM480.784 648.152C471.909 648.152 464.997 645.976 460.048 641.624C455.099 637.187 452.624 630.531 452.624 621.656V562.136H476.944V621.4C476.944 623.875 477.627 625.837 478.992 627.288C480.357 628.653 482.107 629.336 484.24 629.336C487.141 629.336 489.616 628.611 491.664 627.16L497.68 644.184C495.632 645.549 493.115 646.531 490.128 647.128C487.141 647.811 484.027 648.152 480.784 648.152ZM442.512 598.36V580.184H492.816V598.36H442.512ZM552.242 576.472C557.618 576.472 562.482 577.581 566.834 579.8C571.186 581.933 574.599 585.261 577.074 589.784C579.634 594.307 580.914 600.152 580.914 607.32V647H556.594V611.288C556.594 606.339 555.57 602.755 553.522 600.536C551.559 598.232 548.786 597.08 545.202 597.08C542.642 597.08 540.295 597.677 538.162 598.872C536.029 599.981 534.365 601.731 533.17 604.12C531.975 606.509 531.378 609.624 531.378 613.464V647H507.058V552.024H531.378V597.336L525.746 591.576C528.391 586.541 532.018 582.787 536.626 580.312C541.234 577.752 546.439 576.472 552.242 576.472ZM642.519 648.792C635.351 648.792 628.738 647.64 622.679 645.336C616.62 643.032 611.33 639.789 606.807 635.608C602.37 631.341 598.914 626.392 596.439 620.76C593.964 615.128 592.727 608.941 592.727 602.2C592.727 595.459 593.964 589.272 596.439 583.64C598.914 578.008 602.37 573.101 606.807 568.92C611.33 564.653 616.62 561.368 622.679 559.064C628.738 556.76 635.351 555.608 642.519 555.608C649.772 555.608 656.386 556.76 662.359 559.064C668.418 561.368 673.666 564.653 678.103 568.92C682.54 573.101 685.996 578.008 688.471 583.64C691.031 589.272 692.311 595.459 692.311 602.2C692.311 608.941 691.031 615.171 688.471 620.888C685.996 626.52 682.54 631.427 678.103 635.608C673.666 639.789 668.418 643.032 662.359 645.336C656.386 647.64 649.772 648.792 642.519 648.792ZM642.519 627.8C645.932 627.8 649.09 627.203 651.991 626.008C654.978 624.813 657.538 623.107 659.671 620.888C661.89 618.584 663.596 615.853 664.791 612.696C666.071 609.539 666.711 606.04 666.711 602.2C666.711 598.275 666.071 594.776 664.791 591.704C663.596 588.547 661.89 585.859 659.671 583.64C657.538 581.336 654.978 579.587 651.991 578.392C649.09 577.197 645.932 576.6 642.519 576.6C639.106 576.6 635.906 577.197 632.919 578.392C630.018 579.587 627.458 581.336 625.239 583.64C623.106 585.859 621.399 588.547 620.119 591.704C618.924 594.776 618.327 598.275 618.327 602.2C618.327 606.04 618.924 609.539 620.119 612.696C621.399 615.853 623.106 618.584 625.239 620.888C627.458 623.107 630.018 624.813 632.919 626.008C635.906 627.203 639.106 627.8 642.519 627.8ZM748.081 648.152C742.193 648.152 737.158 646.872 732.977 644.312C728.796 641.667 725.596 637.741 723.377 632.536C721.244 627.245 720.177 620.504 720.177 612.312C720.177 604.035 721.201 597.293 723.249 592.088C725.297 586.797 728.369 582.872 732.465 580.312C736.646 577.752 741.852 576.472 748.081 576.472C754.396 576.472 760.113 577.965 765.233 580.952C770.438 583.853 774.534 587.992 777.521 593.368C780.593 598.659 782.129 604.973 782.129 612.312C782.129 619.651 780.593 626.008 777.521 631.384C774.534 636.76 770.438 640.899 765.233 643.8C760.113 646.701 754.396 648.152 748.081 648.152ZM704.433 671.832V577.624H727.601V589.4L727.473 612.312L728.753 635.352V671.832H704.433ZM742.961 628.824C745.692 628.824 748.124 628.184 750.257 626.904C752.476 625.624 754.225 623.747 755.505 621.272C756.87 618.797 757.553 615.811 757.553 612.312C757.553 608.813 756.87 605.827 755.505 603.352C754.225 600.877 752.476 599 750.257 597.72C748.124 596.44 745.692 595.8 742.961 595.8C740.23 595.8 737.756 596.44 735.537 597.72C733.404 599 731.654 600.877 730.289 603.352C729.009 605.827 728.369 608.813 728.369 612.312C728.369 615.811 729.009 618.797 730.289 621.272C731.654 623.747 733.404 625.624 735.537 626.904C737.756 628.184 740.23 628.824 742.961 628.824ZM818.649 648.152C812.761 648.152 807.001 647.469 801.369 646.104C795.822 644.739 791.342 643.032 787.929 640.984L795.225 624.344C798.468 626.307 802.265 627.885 806.617 629.08C810.969 630.189 815.236 630.744 819.417 630.744C823.513 630.744 826.329 630.317 827.865 629.464C829.486 628.611 830.297 627.459 830.297 626.008C830.297 624.643 829.529 623.661 827.993 623.064C826.542 622.381 824.58 621.869 822.105 621.528C819.716 621.187 817.07 620.803 814.169 620.376C811.268 619.949 808.324 619.395 805.337 618.712C802.436 617.944 799.748 616.835 797.273 615.384C794.884 613.848 792.964 611.8 791.513 609.24C790.062 606.68 789.337 603.437 789.337 599.512C789.337 595.075 790.617 591.149 793.177 587.736C795.822 584.237 799.662 581.507 804.697 579.544C809.732 577.496 815.876 576.472 823.129 576.472C827.993 576.472 832.9 576.984 837.849 578.008C842.884 578.947 847.108 580.397 850.521 582.36L843.225 598.872C839.812 596.909 836.398 595.587 832.985 594.904C829.572 594.136 826.329 593.752 823.257 593.752C819.161 593.752 816.26 594.221 814.553 595.16C812.932 596.099 812.121 597.251 812.121 598.616C812.121 599.981 812.846 601.048 814.297 601.816C815.748 602.499 817.668 603.053 820.057 603.48C822.532 603.821 825.22 604.205 828.121 604.632C831.022 604.973 833.924 605.528 836.825 606.296C839.812 607.064 842.5 608.216 844.889 609.752C847.364 611.203 849.326 613.208 850.777 615.768C852.228 618.243 852.953 621.443 852.953 625.368C852.953 629.635 851.63 633.475 848.985 636.888C846.425 640.301 842.585 643.032 837.465 645.08C832.43 647.128 826.158 648.152 818.649 648.152Z" fill="#F5F5F5"/>
<rect x="894" y="530.925" width="346" height="156" rx="78" transform="rotate(-9.46946 894 530.925)" fill="white"/>
<path d="M974.229 631.091L992.433 559.926L1010.9 556.846L1051.31 618.234L1031.8 621.488L999.362 568.211L1006.75 566.979L993.357 627.9L974.229 631.091ZM988.084 615.543L990.607 600.913L1022.99 595.511L1030.13 608.531L988.084 615.543ZM1074.11 615.308C1069.75 616.034 1065.4 616.24 1061.07 615.925C1056.8 615.599 1053.27 614.889 1050.49 613.795L1053.84 600.585C1056.48 601.637 1059.48 602.336 1062.85 602.683C1066.21 602.967 1069.43 602.851 1072.53 602.335C1075.56 601.829 1077.59 601.166 1078.62 600.345C1079.71 599.514 1080.17 598.562 1079.99 597.489C1079.82 596.479 1079.13 595.847 1077.92 595.595C1076.76 595.269 1075.25 595.132 1073.38 595.185C1071.57 595.228 1069.56 595.27 1067.36 595.312C1065.16 595.355 1062.92 595.308 1060.62 595.171C1058.38 594.961 1056.26 594.472 1054.25 593.704C1052.29 592.863 1050.62 591.584 1049.23 589.87C1047.84 588.155 1046.9 585.845 1046.42 582.942C1045.87 579.659 1046.33 576.597 1047.81 573.756C1049.33 570.841 1051.84 568.348 1055.32 566.274C1058.79 564.138 1063.21 562.622 1068.57 561.727C1072.17 561.127 1075.87 560.901 1079.65 561.047C1083.49 561.121 1086.8 561.673 1089.57 562.703L1086.21 575.819C1083.44 574.788 1080.75 574.231 1078.14 574.147C1075.52 574 1073.07 574.116 1070.8 574.495C1067.77 575 1065.68 575.706 1064.54 576.611C1063.45 577.505 1063 578.457 1063.16 579.467C1063.33 580.477 1064 581.177 1065.17 581.566C1066.33 581.892 1067.81 582.066 1069.63 582.086C1071.51 582.034 1073.54 581.986 1075.74 581.944C1077.93 581.838 1080.15 581.89 1082.39 582.101C1084.69 582.3 1086.82 582.821 1088.78 583.662C1090.79 584.43 1092.49 585.671 1093.88 587.386C1095.26 589.038 1096.19 591.316 1096.67 594.22C1097.2 597.376 1096.69 600.38 1095.16 603.232C1093.68 606.073 1091.18 608.566 1087.65 610.713C1084.17 612.85 1079.66 614.381 1074.11 615.308ZM1107.09 608.929L1098.53 557.606L1116.52 554.606L1125.08 605.929L1107.09 608.929ZM1106.58 550.424C1103.3 550.972 1100.49 550.499 1098.17 549.005C1095.84 547.511 1094.45 545.407 1094 542.693C1093.55 539.978 1094.18 537.537 1095.89 535.37C1097.61 533.202 1100.11 531.844 1103.39 531.297C1106.67 530.749 1109.47 531.191 1111.79 532.621C1114.09 533.989 1115.47 536.03 1115.92 538.744C1116.4 541.585 1115.78 544.121 1114.08 546.352C1112.43 548.509 1109.93 549.866 1106.58 550.424ZM1168.12 598.751L1166.52 589.187L1164.9 587.025L1161.96 569.412C1161.49 566.571 1160.24 564.541 1158.22 563.32C1156.25 562.027 1153.37 561.695 1149.59 562.327C1147.13 562.738 1144.7 563.564 1142.31 564.806C1139.91 565.985 1137.95 567.416 1136.41 569.1L1128.31 557.895C1130.9 555.517 1134.13 553.486 1138 551.802C1141.93 550.044 1145.91 548.829 1149.95 548.155C1158.28 546.765 1165.04 547.616 1170.23 550.709C1175.47 553.728 1178.77 559.309 1180.13 567.453L1184.88 595.955L1168.12 598.751ZM1153.11 602.13C1149.01 602.814 1145.42 602.699 1142.35 601.784C1139.28 600.869 1136.78 599.338 1134.87 597.192C1133.01 595.036 1131.84 592.474 1131.35 589.507C1130.82 586.35 1131.16 583.504 1132.36 580.968C1133.61 578.359 1135.81 576.175 1138.95 574.418C1142.09 572.597 1146.31 571.245 1151.61 570.36L1163.73 568.339L1165.29 577.713L1155.63 579.324C1152.73 579.808 1150.76 580.624 1149.72 581.771C1148.74 582.907 1148.38 584.265 1148.64 585.843C1148.91 587.421 1149.72 588.584 1151.07 589.331C1152.43 590.077 1154.15 590.277 1156.23 589.93C1158.19 589.603 1159.88 588.835 1161.3 587.625C1162.77 586.341 1163.72 584.626 1164.14 582.479L1167.71 588.697C1167.35 592.39 1165.94 595.384 1163.46 597.678C1161.04 599.898 1157.59 601.382 1153.11 602.13Z" fill="#33FFF3"/>
</svg>
