<svg width="941" height="101" viewBox="0 0 941 101" fill="none" xmlns="http://www.w3.org/2000/svg">
<path d="M470.5 0.5C600.413 0.5 718.02 6.15182 803.141 15.2881C845.704 19.8565 880.128 25.2951 903.902 31.3281C915.794 34.3457 924.993 37.5053 931.209 40.7656C934.317 42.3961 936.654 44.0387 938.208 45.6807C939.759 47.3204 940.5 48.926 940.5 50.5C940.5 52.074 939.759 53.6796 938.208 55.3193C936.654 56.9613 934.317 58.6039 931.209 60.2344C924.993 63.4947 915.794 66.6543 903.902 69.6719C880.128 75.7049 845.704 81.1435 803.141 85.7119C718.02 94.8482 600.413 100.5 470.5 100.5C340.587 100.5 222.98 94.8482 137.859 85.7119C95.296 81.1435 60.8721 75.7049 37.0977 69.6719C25.2064 66.6543 16.0068 63.4947 9.79102 60.2344C6.68256 58.6039 4.34556 56.9613 2.79199 55.3193C1.24065 53.6796 0.5 52.074 0.5 50.5C0.5 48.926 1.24065 47.3204 2.79199 45.6807C4.34556 44.0387 6.68256 42.3961 9.79102 40.7656C16.0068 37.5053 25.2064 34.3457 37.0977 31.3281C60.8721 25.2951 95.296 19.8565 137.859 15.2881C222.98 6.15182 340.587 0.5 470.5 0.5Z" stroke="#07DDDA"/>
</svg>
