<?xml version="1.0" encoding="UTF-8"?>
<svg version="1.1" xmlns="http://www.w3.org/2000/svg" width="1354" height="255">
<path d="M0 0 C446.82 0 893.64 0 1354 0 C1354 84.15 1354 168.3 1354 255 C907.18 255 460.36 255 0 255 C0 170.85 0 86.7 0 0 Z " fill="#010202" transform="translate(0,0)"/>
<path d="M0 0 C446.82 0 893.64 0 1354 0 C1354 58.08 1354 116.16 1354 176 C1323.53833162 166.97432048 1323.53833162 166.97432048 1312.6875 163.5625 C1286.60080438 155.43617843 1260.47312337 147.75793157 1234 141 C1232.97793457 140.73900513 1231.95586914 140.47801025 1230.90283203 140.20910645 C1202.08894957 132.86056371 1173.26373301 125.64227252 1144.1741333 119.46362305 C1141.89627847 118.9778819 1139.61964983 118.48670792 1137.34326172 117.99414062 C1117.18947826 113.63443217 1097.00658481 109.57999034 1076.69776917 106.00956726 C1072.58544463 105.28567854 1068.47896088 104.53542707 1064.375 103.765625 C1029.94108996 97.35406211 995.15785257 92.64931462 960.40905762 88.30145264 C958.77689763 88.09721554 957.14481983 87.89232075 955.51281738 87.68682861 C917.99958594 82.96448552 880.47719969 79.38750494 842.75 76.875 C840.98650208 76.75425613 840.98650208 76.75425613 839.18737793 76.631073 C794.95103511 73.63238539 750.64730768 72.65366278 706.31860352 72.73925781 C700.36278401 72.75068385 694.40714279 72.74382795 688.45132923 72.73237991 C647.0559633 72.66500761 605.73495577 73.81756169 564.4375 76.75 C563.24694 76.83303375 562.05638 76.9160675 560.82974243 77.00161743 C488.09548745 82.10485204 415.81990289 90.31164151 344 103 C342.8773877 103.19787109 341.75477539 103.39574219 340.59814453 103.59960938 C261.36172327 117.59905662 183.08578432 135.88779415 106 159 C105.13942993 159.25763123 104.27885986 159.51526245 103.39221191 159.78070068 C76.67697571 167.78997616 50.19283133 176.4725809 23.75390625 185.34765625 C22.82853561 185.65758011 21.90316498 185.96750397 20.94975281 186.28681946 C15.3356826 188.17814227 9.76950014 190.17037603 4.22349548 192.25340271 C2 193 2 193 0 193 C0 129.31 0 65.62 0 0 Z " fill="#020303" transform="translate(0,0)"/>
<path d="M0 0 C203.94 0 407.88 0 618 0 C618 0.33 618 0.66 618 1 C616.97720947 1.03440186 615.95441895 1.06880371 614.90063477 1.10424805 C534.58069467 3.89703721 453.78549354 11.16142032 374.60791016 25.046875 C368.00604212 26.20075554 361.41662292 27.23241647 354.76171875 28.01953125 C348.0927727 28.81112956 341.565947 29.97211815 335 31.375 C326.83497987 33.06875143 318.67461551 34.57943066 310.4375 35.875 C297.65413343 37.92363677 285.05247843 40.73993887 272.42617798 43.57359314 C267.44259165 44.6885161 262.45092871 45.75940045 257.453125 46.80859375 C223.9686105 53.85807589 190.58747389 61.68528984 157.71972656 71.22753906 C153.8539298 72.32550863 149.96741974 73.33967696 146.08056641 74.36010742 C122.05468776 80.68476974 98.12608504 87.74054754 74.61450195 95.77392578 C69.73349119 97.4401116 64.83458413 98.96079498 59.875 100.375 C52.15902239 102.58051364 44.54966217 105.08625372 36.9375 107.625 C35.7829834 108.00962402 34.6284668 108.39424805 33.43896484 108.79052734 C27.58098253 110.7557143 21.77210931 112.79610372 16 115 C13.54585293 115.90798052 11.08619789 116.79858579 8.625 117.6875 C7.42101562 118.12449219 6.21703125 118.56148438 4.9765625 119.01171875 C2 120 2 120 0 120 C0 80.4 0 40.8 0 0 Z " fill="#FEFEFE" transform="translate(0,0)"/>
<path d="M0 0 C186.12 0 372.24 0 564 0 C564 33.99 564 67.98 564 103 C535.53453947 94.56578947 535.53453947 94.56578947 523.1640625 90.359375 C518.18484594 88.700415 513.13643948 87.32461305 508.07080078 85.95751953 C503.05220591 84.59503899 498.08362713 83.11350966 493.11987305 81.56347656 C479.09929679 77.18867635 464.92736377 73.54949155 450.69384766 69.94702148 C447.0676913 69.01735456 443.45116597 68.05716004 439.8359375 67.0859375 C409.82064602 59.04849214 379.60582169 51.91003704 349.21051025 45.46881104 C347.14041605 45.02977982 345.07085164 44.58834786 343.00146484 44.14599609 C303.32791226 35.68892149 263.22141763 27.71783537 222.99414062 22.40087891 C219.24937099 21.89949993 215.50747514 21.37808731 211.765625 20.85546875 C210.22753979 20.64078256 208.68945384 20.42610166 207.15136719 20.21142578 C206.37579468 20.10316467 205.60022217 19.99490356 204.80114746 19.88336182 C202.62697208 19.58020443 200.45269013 19.27783361 198.27832031 18.97607422 C197.57671783 18.87869965 196.87511536 18.78132507 196.1522522 18.68099976 C194.66472701 18.47519657 193.17707068 18.27033957 191.68930054 18.0663147 C187.01024805 17.42342731 182.33504097 16.75887759 177.66162109 16.07617188 C158.80987585 13.35446962 139.93251457 11.38192508 120.97290039 9.59698486 C117.04786116 9.22588765 113.12359951 8.84673469 109.19921875 8.46875 C78.24072015 5.26410803 78.24072015 5.26410803 47.1875 3.4375 C41.82182779 3.26767738 36.49122942 3.08989182 31.15234375 2.5078125 C24.90689026 1.83602534 18.65007529 1.65086655 12.375 1.4375 C10.58255859 1.37272461 10.58255859 1.37272461 8.75390625 1.30664062 C5.83602594 1.20159693 2.91807562 1.09944352 0 1 C0 0.67 0 0.34 0 0 Z " fill="#FDFDFD" transform="translate(790,0)"/>
</svg>
