<svg width="18" height="18" viewBox="0 0 18 18" fill="none" xmlns="http://www.w3.org/2000/svg">
<path d="M4.15625 18H0.523438V6.32031H4.15625V18ZM2.32031 4.75781C1.1875 4.75781 0.25 3.78125 0.25 2.60938C0.25 1.00781 1.96875 -0.0078125 3.375 0.8125C4.03906 1.16406 4.42969 1.86719 4.42969 2.60938C4.42969 3.78125 3.49219 4.75781 2.32031 4.75781ZM17.7109 18H14.1172V12.3359C14.1172 10.9688 14.0781 9.25 12.2031 9.25C10.3281 9.25 10.0547 10.6953 10.0547 12.2188V18H6.42188V6.32031H9.89844V7.92188H9.9375C10.4453 7.02344 11.6172 6.04688 13.375 6.04688C17.0469 6.04688 17.75 8.46875 17.75 11.5938V18H17.7109Z" fill="#F5F5F5"/>
</svg>
